# Made in Blockbench 4.8.1
mtllib base_outline.mtl

o cube
v -0.08325466233483698 0.3132499999999999 0.07446196984155015
v -0.3604185220882229 0.3132499999999999 -0.040343059867976795
v -0.3604185220882229 1.1367500000000001 -0.040343059867976795
v -0.08325466233483698 1.1367500000000001 0.07446196984155015
v -0.11052085689084959 0.3132499999999999 0.14028838653297934
v -0.11052085689084959 1.1367500000000001 0.14028838653297934
v -0.38768471664423554 0.3132499999999999 0.025483356823452347
v -0.38768471664423554 1.1367500000000001 0.025483356823452347
v 0.3641685220882229 1.1367500000000001 -0.040343059867976795
v 0.3641685220882229 0.3132499999999999 -0.040343059867976795
v 0.08700466233483699 0.3132499999999999 0.07446196984155015
v 0.08700466233483699 1.1367500000000001 0.07446196984155015
v 0.11427085689084959 0.3132499999999999 0.14028838653297934
v 0.11427085689084959 1.1367500000000001 0.14028838653297934
v 0.39143471664423557 0.3132499999999999 0.025483356823452347
v 0.39143471664423557 1.1367500000000001 0.025483356823452347
vt 0.25 0.6875
vt 0 0.6875
vt 0 1
vt 0.25 1
vt 0.0625 0.6875
vt 0 0.6875
vt 0 1
vt 0.0625 1
vt 0.0625 0.3137500000000001
vt 0.3125 0.3137500000000001
vt 0.3125 1
vt 0.0625 1
vt 0.0625 0.6875
vt 0 0.6875
vt 0 1
vt 0.0625 1
vt 0 0.75
vt 0 1
vt 0.0625 1
vt 0.0625 0.75
vt 0.0625 0.75
vt 0.0625 1
vt 0 1
vt 0 0.75
vt 0 1
vt 0 0.6875
vt 0.25 0.6875
vt 0.25 1
vt 0 1
vt 0 0.6875
vt 0.0625 0.6875
vt 0.0625 1
vt 0 1
vt 0 0.3137500000000001
vt 0.25 0.3137500000000001
vt 0.25 1
vt 0 1
vt 0 0.6875
vt 0.0625 0.6875
vt 0.0625 1
vt 0.0625 1
vt 0 1
vt 0 0.75
vt 0.0625 0.75
vt 0 1
vt 0.0625 1
vt 0.0625 0.75
vt 0 0.75
vn 0.38268343236509006 0 -0.9238795325112868
vn 0.9238795325112871 0 0.38268343236508917
vn -0.38268343236509 0 0.9238795325112867
vn -0.9238795325112867 0 -0.38268343236509006
vn 0 1 0
vn 0 -1 0
vn -0.38268343236509006 0 -0.9238795325112868
vn -0.9238795325112871 0 0.38268343236508917
vn 0.38268343236509 0 0.9238795325112867
vn 0.9238795325112867 0 -0.38268343236509006
vn 0 1 0
vn 0 -1 0
usemtl outline
f 1/1/1 2/2/1 3/3/1 4/4/1
f 5/5/2 1/6/2 4/7/2 6/8/2
f 7/9/3 5/10/3 6/11/3 8/12/3
f 2/13/4 7/14/4 8/15/4 3/16/4
f 8/17/5 6/18/5 4/19/5 3/20/5
f 2/21/6 1/22/6 5/23/6 7/24/6
f 9/25/7 10/26/7 11/27/7 12/28/7
f 12/29/8 11/30/8 13/31/8 14/32/8
f 14/33/9 13/34/9 15/35/9 16/36/9
f 16/37/10 15/38/10 10/39/10 9/40/10
f 12/41/11 14/42/11 16/43/11 9/44/11
f 13/45/12 11/46/12 10/47/12 15/48/12
o cube1
v -0.1029230994670481 0.3132499999999999 -0.14536936771613804
v -0.3800869592204342 0.3132499999999999 -0.030564338006611007
v -0.3800869592204342 1.1367500000000001 -0.030564338006611007
v -0.1029230994670481 1.1367500000000001 -0.14536936771613804
v -0.07422184203966638 0.3132499999999999 -0.07607840277779149
v -0.07422184203966638 1.1367500000000001 -0.07607840277779149
v -0.35138570179305245 0.3132499999999999 0.038726626931735446
v -0.35138570179305245 1.1367500000000001 0.038726626931735446
v 0.3838369592204342 1.1367500000000001 -0.030564338006611007
v 0.3838369592204342 0.3132499999999999 -0.030564338006611007
v 0.1066730994670481 0.3132499999999999 -0.14536936771613804
v 0.1066730994670481 1.1367500000000001 -0.14536936771613804
v 0.07797184203966638 0.3132499999999999 -0.07607840277779149
v 0.07797184203966638 1.1367500000000001 -0.07607840277779149
v 0.3551357017930525 0.3132499999999999 0.038726626931735446
v 0.3551357017930525 1.1367500000000001 0.038726626931735446
vt 0 0.3137500000000001
vt 0.25 0.3137500000000001
vt 0.25 1
vt 0 1
vt 0.0625 0.6875
vt 0 0.6875
vt 0 1
vt 0.0625 1
vt 0.25 0.6875
vt 0 0.6875
vt 0 1
vt 0.25 1
vt 0.0625 0.6875
vt 0 0.6875
vt 0 1
vt 0.0625 1
vt 0.0625 1
vt 0.0625 0.75
vt 0 0.75
vt 0 1
vt 0 1
vt 0 0.75
vt 0.0625 0.75
vt 0.0625 1
vt 0.0625 1
vt 0.0625 0.3137500000000001
vt 0.3125 0.3137500000000001
vt 0.3125 1
vt 0 1
vt 0 0.6875
vt 0.0625 0.6875
vt 0.0625 1
vt 0 1
vt 0 0.6875
vt 0.25 0.6875
vt 0.25 1
vt 0 1
vt 0 0.6875
vt 0.0625 0.6875
vt 0.0625 1
vt 0 0.75
vt 0.0625 0.75
vt 0.0625 1
vt 0 1
vt 0.0625 0.75
vt 0 0.75
vt 0 1
vt 0.0625 1
vn -0.38268343236509 0 -0.9238795325112867
vn 0.9238795325112868 0 -0.3826834323650895
vn 0.3826834323650897 0 0.9238795325112868
vn -0.9238795325112868 0 0.38268343236509
vn 0 1 0
vn 0 -1 0
vn 0.38268343236509 0 -0.9238795325112867
vn -0.9238795325112868 0 -0.3826834323650895
vn -0.3826834323650897 0 0.9238795325112868
vn 0.9238795325112868 0 0.38268343236509
vn 0 1 0
vn 0 -1 0
usemtl outline
f 17/49/13 18/50/13 19/51/13 20/52/13
f 21/53/14 17/54/14 20/55/14 22/56/14
f 23/57/15 21/58/15 22/59/15 24/60/15
f 18/61/16 23/62/16 24/63/16 19/64/16
f 24/65/17 22/66/17 20/67/17 19/68/17
f 18/69/18 17/70/18 21/71/18 23/72/18
f 25/73/19 26/74/19 27/75/19 28/76/19
f 28/77/20 27/78/20 29/79/20 30/80/20
f 30/81/21 29/82/21 31/83/21 32/84/21
f 32/85/22 31/86/22 26/87/22 25/88/22
f 28/89/23 30/90/23 32/91/23 25/92/23
f 29/93/24 27/94/24 26/95/24 31/96/24
o cube5
v 0.076875 0.3125000000000001 -0.14966512929403
v -0.073125 0.3125000000000001 -0.14966512929403
v -0.073125 1.1375 -0.14966512929403
v 0.076875 1.1375 -0.14966512929403
v 0.076875 0.3125000000000001 0.15033487070597
v 0.076875 1.1375 0.15033487070597
v -0.073125 0.3125000000000001 0.15033487070597
v -0.073125 1.1375 0.15033487070597
vt 0 0.25
vt 0.125 0.25
vt 0.125 0.9375
vt 0 0.9375
vt 0 0.25
vt 0.375 0.25
vt 0.375 1
vt 0 1
vt 0 0.25
vt 0.125 0.25
vt 0.125 0.9375
vt 0 0.9375
vt 0 0.75
vt 0.125 0.75
vt 0.125 1
vt 0 1
vt 0 0.75
vt 0.125 0.75
vt 0.125 1
vt 0 1
vt 0 1
vt 0 0.25
vt 0.25 0.25
vt 0.25 1
vn 0 0 -1
vn 1 0 0
vn 0 0 1
vn 0 1 0
vn 0 -1 0
vn -1 0 0
usemtl outline
f 33/97/25 34/98/25 35/99/25 36/100/25
f 37/101/26 33/102/26 36/103/26 38/104/26
f 39/105/27 37/106/27 38/107/27 40/108/27
f 40/109/28 38/110/28 36/111/28 35/112/28
f 34/113/29 33/114/29 37/115/29 39/116/29
f 35/117/30 34/118/30 39/119/30 40/120/30
o cube6
v 0.1417319538179664 1.4444619592204342 -0.03641512929401627
v 0.1417319538179664 1.4444619592204337 0.03708487070598403
v 0.35007923842210836 1.0993358235687516 0.03708487070598145
v 0.35007923842210836 1.0993358235687523 -0.036415129294018835
v 0.2243305283783769 1.063596842039666 0.0370848707059812
v 0.2243305283783769 1.0635968420396666 -0.036415129294019084
v 0.015983243774234962 1.4087229776913477 0.03708487070598378
v 0.01598324377423495 1.4087229776913484 -0.03641512929401652
vt 0 0.875
vt 0 0.81375
vt 0.33594999999999997 0.81375
vt 0.33594999999999997 0.875
vt 0 1
vt 0 0.6875
vt 0.0625 0.6875
vt 0.0625 1
vt 0 1
vt 0 0.6875
vt 0.25 0.6875
vt 0.25 1
vt 0 1
vt 0 0.6875
vt 0.0625 0.6875
vt 0.0625 1
vt 0.10509961800751233 1
vt 1.1102230246251565e-16 0.9713396911655249
vt 0 0.6353888083506969
vt 0.10510496860831287 0.6640523472890516
vt 0 0.9116147275492397
vt 0 0.802677392315572
vt 0.3241140720449742 0.8910566528524775
vt 0.32411578066775326 1
vn 0.8560982042640533 0.5168131815809881 3.122600781610844e-15
vn 0.2733826676765129 -0.9619053576179278 -8.717791637042568e-15
vn -0.856098204264053 -0.5168131815809885 -4.683901172416271e-15
vn -0.2733826676765159 0.9619053576179268 8.750053088167975e-15
vn -1.090240575277317e-16 7.373176399110665e-15 -1
vn 1.1390138284152432e-16 -7.390337418827301e-15 1
usemtl outline
f 41/121/31 42/122/31 43/123/31 44/124/31
f 44/125/32 43/126/32 45/127/32 46/128/32
f 46/129/33 45/130/33 47/131/33 48/132/33
f 48/133/34 47/134/34 42/135/34 41/136/34
f 44/137/35 46/138/35 48/139/35 41/140/35
f 45/141/36 43/142/36 42/143/36 47/144/36
o cube7
v -0.1998750000000005 1.147629662334837 0.07446196984155015
v -0.19987500000000058 1.4247935220882229 -0.040343059867976795
v 0.17362499999999972 1.4247935220882229 -0.040343059867976795
v 0.17362499999999978 1.147629662334837 0.07446196984155015
v -0.1998750000000005 1.1748958568908499 0.14028838653297934
v 0.17362499999999978 1.1748958568908499 0.14028838653297934
v -0.19987500000000058 1.4520597166442355 0.025483356823452347
v 0.17362499999999972 1.4520597166442355 0.025483356823452347
vt 0.25 0.6875
vt 0 0.6875
vt 0 1
vt 0.25 1
vt 0.0625 0.6875
vt 0 0.6875
vt 0 1
vt 0.0625 1
vt 0.25 0.6875
vt 0 0.6875
vt 0 1
vt 0.25 1
vt 0.0625 0.6875
vt 0 0.6875
vt 0 1
vt 0.0625 1
vt 0 0.75
vt 0 1
vt 0.0625 1
vt 0.0625 0.75
vt 0.0625 0.75
vt 0.0625 1
vt 0 1
vt 0 0.75
vn 0 -0.3826834323650901 -0.9238795325112868
vn 0 -0.9238795325112857 0.3826834323650923
vn 0 0.3826834323650904 0.9238795325112865
vn 0 0.9238795325112866 -0.38268343236509006
vn 1 1.7095205482899273e-16 -7.08106596257183e-17
vn -1 -2.564280822434888e-16 1.0621598943857738e-16
usemtl outline
f 49/145/37 50/146/37 51/147/37 52/148/37
f 53/149/38 49/150/38 52/151/38 54/152/38
f 55/153/39 53/154/39 54/155/39 56/156/39
f 50/157/40 55/158/40 56/159/40 51/160/40
f 56/161/41 54/162/41 52/163/41 51/164/41
f 50/165/42 49/166/42 53/167/42 55/168/42
o cube8
v -0.1998750000000005 1.167298099467048 -0.14536936771613804
v -0.19987500000000058 1.4444619592204342 -0.030564338006611007
v 0.17362499999999972 1.4444619592204342 -0.030564338006611007
v 0.17362499999999978 1.167298099467048 -0.14536936771613804
v -0.1998750000000005 1.1385968420396666 -0.07607840277779149
v 0.17362499999999978 1.1385968420396666 -0.07607840277779149
v -0.19987500000000058 1.4157607017930525 0.038726626931735446
v 0.17362499999999972 1.4157607017930525 0.038726626931735446
vt 0.25 0.6875
vt 0 0.6875
vt 0 1
vt 0.25 1
vt 0.0625 0.6875
vt 0 0.6875
vt 0 1
vt 0.0625 1
vt 0.25 0.6875
vt 0 0.6875
vt 0 1
vt 0.25 1
vt 0.0625 0.6875
vt 0 0.6875
vt 0 1
vt 0.0625 1
vt 0.0625 1
vt 0.0625 0.75
vt 0 0.75
vt 0 1
vt 0 1
vt 0 0.75
vt 0.0625 0.75
vt 0.0625 1
vn 0 0.38268343236509 -0.9238795325112868
vn 0 -0.923879532511288 -0.382683432365087
vn 0 -0.3826834323650901 0.9238795325112868
vn 0 0.9238795325112867 0.38268343236508995
vn 1 1.7095205482899302e-16 7.081065962571727e-17
vn -1 -2.5642808224348936e-16 -1.0621598943857581e-16
usemtl outline
f 57/169/43 58/170/43 59/171/43 60/172/43
f 61/173/44 57/174/44 60/175/44 62/176/44
f 63/177/45 61/178/45 62/179/45 64/180/45
f 58/181/46 63/182/46 64/183/46 59/184/46
f 64/185/47 62/186/47 60/187/47 59/188/47
f 58/189/48 57/190/48 61/191/48 63/192/48
o cube9
v -0.36882923842210835 1.0993358235687516 0.03708487070598145
v -0.16048195381796643 1.4444619592204337 0.03708487070598403
v -0.16048195381796643 1.4444619592204342 -0.03641512929401627
v -0.36882923842210835 1.0993358235687523 -0.036415129294018835
v -0.24308052837837688 1.063596842039666 0.0370848707059812
v -0.24308052837837688 1.0635968420396666 -0.036415129294019084
v -0.034733243774234965 1.4087229776913477 0.03708487070598378
v -0.034733243774234965 1.4087229776913484 -0.03641512929401652
vt 0 0.81375
vt 0.33594999999999997 0.81375
vt 0.33594999999999997 0.875
vt 0 0.875
vt 0.0625 0.6875
vt 0 0.6875
vt 0 1
vt 0.0625 1
vt 0.25 0.6875
vt 0 0.6875
vt 0 1
vt 0.25 1
vt 0.0625 0.6875
vt 0 0.6875
vt 0 1
vt 0.0625 1
vt 0 0.7401773923155719
vt 0.3241157806677535 0.8285626647663323
vt 0.32411578066775326 0.9375
vt 0.0000017086227790397146 0.8491207394630944
vt 0.0625 0.9713381350603942
vt 0.06250000000000011 0.6353904823068366
vt 0.16760007446372482 0.6640491172277813
vt 0.1676054251159702 1
vn -0.8560982042640533 0.5168131815809881 3.2785112715781114e-15
vn -0.2733826676765127 -0.9619053576179277 -8.756155394687284e-15
vn 0.856098204264053 -0.5168131815809885 -4.683587530825879e-15
vn 0.273382667676516 0.9619053576179268 8.66588575144308e-15
vn 1.0902405752773188e-16 7.373176399110665e-15 -1
vn -1.1390138284152378e-16 -7.3903374188273e-15 1
usemtl outline
f 65/193/49 66/194/49 67/195/49 68/196/49
f 69/197/50 65/198/50 68/199/50 70/200/50
f 71/201/51 69/202/51 70/203/51 72/204/51
f 66/205/52 71/206/52 72/207/52 67/208/52
f 72/209/53 70/210/53 68/211/53 67/212/53
f 66/213/54 65/214/54 69/215/54 71/216/54
o cube10
v -0.20062500000000036 1.1375 -0.09341512929403
v -0.20062500000000041 1.2875 -0.09341512929403
v 0.17437499999999956 1.2875 -0.09341512929403
v 0.17437499999999964 1.1375 -0.09341512929403
v -0.20062500000000036 1.1375 0.09408487070597
v 0.17437499999999964 1.1375 0.09408487070597
v -0.20062500000000041 1.2875 0.09408487070597
v 0.17437499999999956 1.2875 0.09408487070597
vt 0.0625 0.6875
vt 0 0.6875
vt 0 1
vt 0.0625 1
vt 0.15625 0.6875
vt 0 0.6875
vt 0 1
vt 0.15625 1
vt 0.0625 0.6875
vt 0 0.6875
vt 0 1
vt 0.0625 1
vt 0.15625 0.6875
vt 0 0.6875
vt 0 1
vt 0.15625 1
vt 0.15625 1
vt 0.15625 0.9375
vt 0 0.9375
vt 0 1
vt 0 1
vt 0 0.9375
vt 0.15625 0.9375
vt 0.15625 1
vn 0 0 -1
vn 0 -1 0
vn 0 0 1
vn 0 1 0
vn 1 5.551115123125778e-16 0
vn -1 -3.700743415417185e-16 0
usemtl outline
f 73/217/55 74/218/55 75/219/55 76/220/55
f 77/221/56 73/222/56 76/223/56 78/224/56
f 79/225/57 77/226/57 78/227/57 80/228/57
f 74/229/58 79/230/58 80/231/58 75/232/58
f 80/233/59 78/234/59 76/235/59 75/236/59
f 74/237/60 73/238/60 77/239/60 79/240/60
o cube11
v -0.20062500000000041 1.2875 -0.01841512929403
v -0.20062500000000041 1.3625 -0.01841512929403
v 0.17437499999999956 1.3625 -0.01841512929403
v 0.17437499999999956 1.2875 -0.01841512929403
v -0.20062500000000041 1.2875 0.019084870705969998
v 0.17437499999999956 1.2875 0.019084870705969998
v -0.20062500000000041 1.3625 0.019084870705969998
v 0.17437499999999956 1.3625 0.019084870705969998
vt 0.0625 0.6875
vt 0 0.6875
vt 0 1
vt 0.0625 1
vt 0.03125 0.6875
vt 0 0.6875
vt 0 1
vt 0.03125 1
vt 0.0625 0.6875
vt 0 0.6875
vt 0 1
vt 0.0625 1
vt 0.03125 0.6875
vt 0 0.6875
vt 0 1
vt 0.03125 1
vt 0.03125 1
vt 0.03125 0.9375
vt 0 0.9375
vt 0 1
vt 0 1
vt 0 0.9375
vt 0.03125 0.9375
vt 0.03125 1
vn 0 0 -1
vn 0 -1 0
vn 0 0 1
vn 0 1 0
vn 1 0 0
vn -1 0 0
usemtl outline
f 81/241/61 82/242/61 83/243/61 84/244/61
f 85/245/62 81/246/62 84/247/62 86/248/62
f 87/249/63 85/250/63 86/251/63 88/252/63
f 82/253/64 87/254/64 88/255/64 83/256/64
f 88/257/65 86/258/65 84/259/65 83/260/65
f 82/261/66 81/262/66 85/263/66 87/264/66
o cube12
v -0.20062500000000041 1.3625 -0.031165129294029995
v -0.20062500000000041 1.4375 -0.031165129294029995
v 0.17437499999999956 1.4375 -0.031165129294029995
v 0.17437499999999956 1.3625 -0.031165129294029995
v -0.20062500000000041 1.3625 0.03183487070596999
v 0.17437499999999956 1.3625 0.03183487070596999
v -0.20062500000000041 1.4375 0.03183487070596999
v 0.17437499999999956 1.4375 0.03183487070596999
vt 0.0625 0.6875
vt 0 0.6875
vt 0 1
vt 0.0625 1
vt 0.05249999999999999 0.6875
vt 0 0.6875
vt 0 1
vt 0.05249999999999999 1
vt 0.0625 0.6875
vt 0 0.6875
vt 0 1
vt 0.0625 1
vt 0.05249999999999999 0.6875
vt 0 0.6875
vt 0 1
vt 0.05249999999999999 1
vt 0.05249999999999999 1
vt 0.05249999999999999 0.9375
vt 0 0.9375
vt 0 1
vt 0 1
vt 0 0.9375
vt 0.05249999999999999 0.9375
vt 0.05249999999999999 1
vn 0 0 -1
vn 0 -1 0
vn 0 0 1
vn 0 1 0
vn 1 0 0
vn -1 0 0
usemtl outline
f 89/265/67 90/266/67 91/267/67 92/268/67
f 93/269/68 89/270/68 92/271/68 94/272/68
f 95/273/69 93/274/69 94/275/69 96/276/69
f 90/277/70 95/278/70 96/279/70 91/280/70
f 96/281/71 94/282/71 92/283/71 91/284/71
f 90/285/72 89/286/72 93/287/72 95/288/72