# Made in Blockbench 4.8.1
mtllib base.mtl

o cube
v -0.07094138527903082 0.4381249999999999 0.06177258261298346
v -0.30191126840685245 0.4381249999999999 -0.033898275478289
v -0.30191126840685245 1.1243750000000001 -0.033898275478289
v -0.07094138527903082 1.1243750000000001 0.06177258261298346
v -0.09366321407570799 0.4381249999999999 0.11662792985584114
v -0.09366321407570799 1.1243750000000001 0.11662792985584114
v -0.3246330972035296 0.4381249999999999 0.020957071764568624
v -0.3246330972035296 1.1243750000000001 0.020957071764568624
v 0.07094138527903082 0.4381249999999999 0.06177258261298346
v 0.30191126840685245 0.4381249999999999 -0.033898275478289
v 0.30191126840685245 1.1243750000000001 -0.033898275478289
v 0.07094138527903082 1.1243750000000001 0.06177258261298346
v 0.09366321407570799 0.4381249999999999 0.11662792985584114
v 0.09366321407570799 1.1243750000000001 0.11662792985584114
v 0.3246330972035296 0.4381249999999999 0.020957071764568624
v 0.3246330972035296 1.1243750000000001 0.020957071764568624
vt 0.25 0.6875
vt 0 0.6875
vt 0 1
vt 0.25 1
vt 0.0625 0.6875
vt 0 0.6875
vt 0 1
vt 0.0625 1
vt 0.0625 0.3137500000000001
vt 0.3125 0.3137500000000001
vt 0.3125 1
vt 0.0625 1
vt 0.0625 0.6875
vt 0 0.6875
vt 0 1
vt 0.0625 1
vt 0 0.75
vt 0 1
vt 0.0625 1
vt 0.0625 0.75
vt 0.0625 0.75
vt 0.0625 1
vt 0 1
vt 0 0.75
vt 0 1
vt 0 0.6875
vt 0.25 0.6875
vt 0.25 1
vt 0 1
vt 0 0.6875
vt 0.0625 0.6875
vt 0.0625 1
vt 0 1
vt 0 0.3137500000000001
vt 0.25 0.3137500000000001
vt 0.25 1
vt 0 1
vt 0 0.6875
vt 0.0625 0.6875
vt 0.0625 1
vt 0.0625 1
vt 0 1
vt 0 0.75
vt 0.0625 0.75
vt 0 1
vt 0.0625 1
vt 0.0625 0.75
vt 0 0.75
vn 0.38268343236509 0 -0.9238795325112868
vn 0.9238795325112871 0 0.3826834323650891
vn -0.3826834323650901 0 0.9238795325112866
vn -0.923879532511287 0 -0.38268343236508945
vn 0 1 0
vn 0 -1 0
vn -0.38268343236509 0 -0.9238795325112868
vn -0.9238795325112871 0 0.3826834323650891
vn 0.3826834323650901 0 0.9238795325112866
vn 0.923879532511287 0 -0.38268343236508945
vn 0 1 0
vn 0 -1 0
usemtl active
f 1/1/1 2/2/1 3/3/1 4/4/1
f 5/5/2 1/6/2 4/7/2 6/8/2
f 7/9/3 5/10/3 6/11/3 8/12/3
f 2/13/4 7/14/4 8/15/4 3/16/4
f 8/17/5 6/18/5 4/19/5 3/20/5
f 2/21/6 1/22/6 5/23/6 7/24/6
f 11/25/7 10/26/7 9/27/7 12/28/7
f 12/29/8 9/30/8 13/31/8 14/32/8
f 14/33/9 13/34/9 15/35/9 16/36/9
f 16/37/10 15/38/10 10/39/10 11/40/10
f 12/41/11 14/42/11 16/43/11 11/44/11
f 13/45/12 9/46/12 10/47/12 15/48/12
o cube1
v -0.08733174955587342 0.4381249999999999 -0.12142019868509002
v -0.31830163268369516 0.4381249999999999 -0.025749340593817505
v -0.31830163268369516 1.1243750000000001 -0.025749340593817505
v -0.08733174955587342 1.1243750000000001 -0.12142019868509002
v -0.06341403503305532 0.4381249999999999 -0.06367772790313458
v -0.06341403503305532 1.1243750000000001 -0.06367772790313458
v -0.29438391816087706 0.4381249999999999 0.031993130188137875
v -0.29438391816087706 1.1243750000000001 0.031993130188137875
v 0.08733174955587342 0.4381249999999999 -0.12142019868509002
v 0.31830163268369516 0.4381249999999999 -0.025749340593817505
v 0.31830163268369516 1.1243750000000001 -0.025749340593817505
v 0.08733174955587342 1.1243750000000001 -0.12142019868509002
v 0.06341403503305532 0.4381249999999999 -0.06367772790313458
v 0.06341403503305532 1.1243750000000001 -0.06367772790313458
v 0.29438391816087706 0.4381249999999999 0.031993130188137875
v 0.29438391816087706 1.1243750000000001 0.031993130188137875
vt 0 0.3137500000000001
vt 0.25 0.3137500000000001
vt 0.25 1
vt 0 1
vt 0.0625 0.6875
vt 0 0.6875
vt 0 1
vt 0.0625 1
vt 0.25 0.6875
vt 0 0.6875
vt 0 1
vt 0.25 1
vt 0.0625 0.6875
vt 0 0.6875
vt 0 1
vt 0.0625 1
vt 0.0625 1
vt 0.0625 0.75
vt 0 0.75
vt 0 1
vt 0 1
vt 0 0.75
vt 0.0625 0.75
vt 0.0625 1
vt 0.0625 1
vt 0.0625 0.3137500000000001
vt 0.3125 0.3137500000000001
vt 0.3125 1
vt 0 1
vt 0 0.6875
vt 0.0625 0.6875
vt 0.0625 1
vt 0 1
vt 0 0.6875
vt 0.25 0.6875
vt 0.25 1
vt 0 1
vt 0 0.6875
vt 0.0625 0.6875
vt 0.0625 1
vt 0 0.75
vt 0.0625 0.75
vt 0.0625 1
vt 0 1
vt 0.0625 0.75
vt 0 0.75
vt 0 1
vt 0.0625 1
vn -0.38268343236509006 0 -0.9238795325112868
vn 0.9238795325112868 0 -0.3826834323650895
vn 0.3826834323650898 0 0.9238795325112868
vn -0.9238795325112867 0 0.3826834323650899
vn 0 1 0
vn 0 -1 0
vn 0.38268343236509006 0 -0.9238795325112868
vn -0.9238795325112868 0 -0.3826834323650895
vn -0.3826834323650898 0 0.9238795325112868
vn 0.9238795325112867 0 0.3826834323650899
vn 0 1 0
vn 0 -1 0
usemtl active
f 17/49/13 18/50/13 19/51/13 20/52/13
f 21/53/14 17/54/14 20/55/14 22/56/14
f 23/57/15 21/58/15 22/59/15 24/60/15
f 18/61/16 23/62/16 24/63/16 19/64/16
f 24/65/17 22/66/17 20/67/17 19/68/17
f 18/69/18 17/70/18 21/71/18 23/72/18
f 27/73/19 26/74/19 25/75/19 28/76/19
f 28/77/20 25/78/20 29/79/20 30/80/20
f 30/81/21 29/82/21 31/83/21 32/84/21
f 32/85/22 31/86/22 26/87/22 27/88/22
f 28/89/23 30/90/23 32/91/23 27/92/23
f 29/93/24 25/94/24 26/95/24 31/96/24
o cube2
v -0.0625 0.4375 -0.078125
v -0.1875 0.4375 -0.078125
v -0.1875 1.125 -0.078125
v -0.0625 1.125 -0.078125
v -0.0625 0.4375 0.078125
v -0.0625 1.125 0.078125
v -0.1875 0.4375 0.078125
v -0.1875 1.125 0.078125
v 0.0625 0.4375 -0.078125
v 0.1875 0.4375 -0.078125
v 0.1875 1.125 -0.078125
v 0.0625 1.125 -0.078125
v 0.0625 0.4375 0.078125
v 0.0625 1.125 0.078125
v 0.1875 0.4375 0.078125
v 0.1875 1.125 0.078125
vt 0.0625 0.6875
vt 0 0.6875
vt 0 1
vt 0.0625 1
vt 0.15625 0.6875
vt 0 0.6875
vt 0 1
vt 0.15625 1
vt 0.0625 0.6875
vt 0 0.6875
vt 0 1
vt 0.0625 1
vt 0.15625 0.6875
vt 0 0.6875
vt 0 1
vt 0.15625 1
vt 0.15625 1
vt 0.15625 0.9375
vt 0 0.9375
vt 0 1
vt 0 1
vt 0 0.9375
vt 0.15625 0.9375
vt 0.15625 1
vt 0 1
vt 0 0.6875
vt 0.0625 0.6875
vt 0.0625 1
vt 0 1
vt 0 0.6875
vt 0.15625 0.6875
vt 0.15625 1
vt 0 1
vt 0 0.6875
vt 0.0625 0.6875
vt 0.0625 1
vt 0 1
vt 0 0.6875
vt 0.15625 0.6875
vt 0.15625 1
vt 0 0.9375
vt 0.15625 0.9375
vt 0.15625 1
vt 0 1
vt 0.15625 0.9375
vt 0 0.9375
vt 0 1
vt 0.15625 1
vn 0 0 -1
vn 1 0 0
vn 0 0 1
vn -1 0 0
vn 0 1 0
vn 0 -1 0
vn 0 0 -1
vn -1 0 0
vn 0 0 1
vn 1 0 0
vn 0 1 0
vn 0 -1 0
usemtl active
f 33/97/25 34/98/25 35/99/25 36/100/25
f 37/101/26 33/102/26 36/103/26 38/104/26
f 39/105/27 37/106/27 38/107/27 40/108/27
f 34/109/28 39/110/28 40/111/28 35/112/28
f 40/113/29 38/114/29 36/115/29 35/116/29
f 34/117/30 33/118/30 37/119/30 39/120/30
f 43/121/31 42/122/31 41/123/31 44/124/31
f 44/125/32 41/126/32 45/127/32 46/128/32
f 46/129/33 45/130/33 47/131/33 48/132/33
f 48/133/34 47/134/34 42/135/34 43/136/34
f 44/137/35 46/138/35 48/139/35 43/140/35
f 45/141/36 41/142/36 42/143/36 47/144/36
o cube3
v -0.1875 0.4375 -0.015625
v -0.25 0.4375 -0.015625
v -0.25 1.125 -0.015625
v -0.1875 1.125 -0.015625
v -0.1875 0.4375 0.015625
v -0.1875 1.125 0.015625
v -0.25 0.4375 0.015625
v -0.25 1.125 0.015625
v 0.1875 0.4375 -0.015625
v 0.25 0.4375 -0.015625
v 0.25 1.125 -0.015625
v 0.1875 1.125 -0.015625
v 0.1875 0.4375 0.015625
v 0.1875 1.125 0.015625
v 0.25 0.4375 0.015625
v 0.25 1.125 0.015625
vt 0.0625 0.6875
vt 0 0.6875
vt 0 1
vt 0.0625 1
vt 0.03125 0.6875
vt 0 0.6875
vt 0 1
vt 0.03125 1
vt 0.0625 0.6875
vt 0 0.6875
vt 0 1
vt 0.0625 1
vt 0.03125 0.6875
vt 0 0.6875
vt 0 1
vt 0.03125 1
vt 0.03125 1
vt 0.03125 0.9375
vt 0 0.9375
vt 0 1
vt 0 1
vt 0 0.9375
vt 0.03125 0.9375
vt 0.03125 1
vt 0 1
vt 0 0.6875
vt 0.0625 0.6875
vt 0.0625 1
vt 0 1
vt 0 0.6875
vt 0.03125 0.6875
vt 0.03125 1
vt 0 1
vt 0 0.6875
vt 0.0625 0.6875
vt 0.0625 1
vt 0 1
vt 0 0.6875
vt 0.03125 0.6875
vt 0.03125 1
vt 0 0.9375
vt 0.03125 0.9375
vt 0.03125 1
vt 0 1
vt 0.03125 0.9375
vt 0 0.9375
vt 0 1
vt 0.03125 1
vn 0 0 -1
vn 1 0 0
vn 0 0 1
vn -1 0 0
vn 0 1 0
vn 0 -1 0
vn 0 0 -1
vn -1 0 0
vn 0 0 1
vn 1 0 0
vn 0 1 0
vn 0 -1 0
usemtl active
f 49/145/37 50/146/37 51/147/37 52/148/37
f 53/149/38 49/150/38 52/151/38 54/152/38
f 55/153/39 53/154/39 54/155/39 56/156/39
f 50/157/40 55/158/40 56/159/40 51/160/40
f 56/161/41 54/162/41 52/163/41 51/164/41
f 50/165/42 49/166/42 53/167/42 55/168/42
f 59/169/43 58/170/43 57/171/43 60/172/43
f 60/173/44 57/174/44 61/175/44 62/176/44
f 62/177/45 61/178/45 63/179/45 64/180/45
f 64/181/46 63/182/46 58/183/46 59/184/46
f 60/185/47 62/186/47 64/187/47 59/188/47
f 61/189/48 57/190/48 58/191/48 63/192/48
o cube4
v -0.25 0.4375 -0.026249999999999996
v -0.3125 0.4375 -0.026249999999999996
v -0.3125 1.125 -0.026249999999999996
v -0.25 1.125 -0.026249999999999996
v -0.25 0.4375 0.026249999999999996
v -0.25 1.125 0.026249999999999996
v -0.3125 0.4375 0.026249999999999996
v -0.3125 1.125 0.026249999999999996
v 0.25 0.4375 -0.026249999999999996
v 0.3125 0.4375 -0.026249999999999996
v 0.3125 1.125 -0.026249999999999996
v 0.25 1.125 -0.026249999999999996
v 0.25 0.4375 0.026249999999999996
v 0.25 1.125 0.026249999999999996
v 0.3125 0.4375 0.026249999999999996
v 0.3125 1.125 0.026249999999999996
vt 0.0625 0.6875
vt 0 0.6875
vt 0 1
vt 0.0625 1
vt 0.05249999999999999 0.6875
vt 0 0.6875
vt 0 1
vt 0.05249999999999999 1
vt 0.0625 0.6875
vt 0 0.6875
vt 0 1
vt 0.0625 1
vt 0.05249999999999999 0.6875
vt 0 0.6875
vt 0 1
vt 0.05249999999999999 1
vt 0.05249999999999999 1
vt 0.05249999999999999 0.9375
vt 0 0.9375
vt 0 1
vt 0 1
vt 0 0.9375
vt 0.05249999999999999 0.9375
vt 0.05249999999999999 1
vt 0 1
vt 0 0.6875
vt 0.0625 0.6875
vt 0.0625 1
vt 0 1
vt 0 0.6875
vt 0.05249999999999999 0.6875
vt 0.05249999999999999 1
vt 0 1
vt 0 0.6875
vt 0.0625 0.6875
vt 0.0625 1
vt 0 1
vt 0 0.6875
vt 0.05249999999999999 0.6875
vt 0.05249999999999999 1
vt 0 0.9375
vt 0.05249999999999999 0.9375
vt 0.05249999999999999 1
vt 0 1
vt 0.05249999999999999 0.9375
vt 0 0.9375
vt 0 1
vt 0.05249999999999999 1
vn 0 0 -1
vn 1 0 0
vn 0 0 1
vn -1 0 0
vn 0 1 0
vn 0 -1 0
vn 0 0 -1
vn -1 0 0
vn 0 0 1
vn 1 0 0
vn 0 1 0
vn 0 -1 0
usemtl active
f 65/193/49 66/194/49 67/195/49 68/196/49
f 69/197/50 65/198/50 68/199/50 70/200/50
f 71/201/51 69/202/51 70/203/51 72/204/51
f 66/205/52 71/206/52 72/207/52 67/208/52
f 72/209/53 70/210/53 68/211/53 67/212/53
f 66/213/54 65/214/54 69/215/54 71/216/54
f 75/217/55 74/218/55 73/219/55 76/220/55
f 76/221/56 73/222/56 77/223/56 78/224/56
f 78/225/57 77/226/57 79/227/57 80/228/57
f 80/229/58 79/230/58 74/231/58 75/232/58
f 76/233/59 78/234/59 80/235/59 75/236/59
f 77/237/60 73/238/60 74/239/60 79/240/60
o cube5
v 0.0625 0.4375 -0.125
v 0.0625 1.125 -0.125
v 0.0625 0.4375 0.125
v 0.0625 1.125 0.125
v -0.0625 0.4375 -0.125
v -0.0625 1.125 -0.125
v -0.0625 0.4375 0.125
v -0.0625 1.125 0.125
vt 0 0.25
vt 0.125 0.25
vt 0.125 0.9375
vt 0 0.9375
vt 0 0.25
vt 0.375 0.25
vt 0.375 1
vt 0 1
vt 0 0.25
vt 0.125 0.25
vt 0.125 0.9375
vt 0 0.9375
vt 0 0.75
vt 0.125 0.75
vt 0.125 1
vt 0 1
vt 0 0.75
vt 0.125 0.75
vt 0.125 1
vt 0 1
vt 0 1
vt 0 0.25
vt 0.25 0.25
vt 0.25 1
vn 0 0 -1
vn 1 0 0
vn 0 0 1
vn 0 1 0
vn 0 -1 0
vn -1 0 0
usemtl active
f 81/241/61 85/242/61 86/243/61 82/244/61
f 83/245/62 81/246/62 82/247/62 84/248/62
f 87/249/63 83/250/63 84/251/63 88/252/63
f 88/253/64 84/254/64 82/255/64 86/256/64
f 85/257/65 81/258/65 83/259/65 87/260/65
f 86/261/66 85/262/66 87/263/66 88/264/66
o cube6
v 0.2901701986850903 1.0931965196406264 0.030625000000009547
v 0.11654746151497203 1.3808016326836947 0.03062500000001169
v 0.11654746151497203 1.3808016326836952 -0.030624999999988554
v 0.2901701986850903 1.0931965196406268 -0.030624999999990698
v 0.18537960698198075 1.063414035033055 0.03062500000000934
v 0.18537960698198075 1.0634140350330554 -0.030624999999990906
v 0.01175686981186247 1.351019148076123 0.030625000000011483
v 0.011756869811862462 1.3510191480761236 -0.030624999999988762
vt 0 0.875
vt 0 0.81375
vt 0.33594999999999997 0.81375
vt 0.33594999999999997 0.875
vt 0 1
vt 0 0.6875
vt 0.0625 0.6875
vt 0.0625 1
vt 0 1
vt 0 0.6875
vt 0.25 0.6875
vt 0.25 1
vt 0 1
vt 0 0.6875
vt 0.0625 0.6875
vt 0.0625 1
vt 0.10509961800751233 1
vt 1.1102230246251565e-16 0.9713396911655249
vt 0 0.6353888083506969
vt 0.10510496860831287 0.6640523472890516
vt 0 0.9116147275492397
vt 0 0.802677392315572
vt 0.3241140720449742 0.8910566528524775
vt 0.32411578066775326 1
vn 0.8560982042640534 0.5168131815809882 3.7967888903749575e-15
vn 0.27338266767651304 -0.9619053576179277 -7.170303272712112e-15
vn -0.856098204264053 -0.5168131815809884 -3.796788890374959e-15
vn -0.2733826676765149 0.9619053576179272 7.170303272712107e-15
vn -1.1102230246251484e-16 7.382983113757291e-15 -1
vn 1.1102230246251484e-16 -7.382983113757291e-15 1
usemtl active
f 91/265/67 90/266/67 89/267/67 92/268/67
f 92/269/68 89/270/68 93/271/68 94/272/68
f 94/273/69 93/274/69 95/275/69 96/276/69
f 96/277/70 95/278/70 90/279/70 91/280/70
f 92/281/71 94/282/71 96/283/71 91/284/71
f 93/285/72 89/286/72 90/287/72 95/288/72
o cube7
v -0.1681250000000004 1.1334413852790308 0.06177258261298346
v -0.16812500000000047 1.3644112684068523 -0.033898275478289
v 0.14312499999999978 1.3644112684068523 -0.033898275478289
v 0.14312499999999984 1.1334413852790308 0.06177258261298346
v -0.1681250000000004 1.156163214075708 0.11662792985584114
v 0.14312499999999984 1.156163214075708 0.11662792985584114
v -0.16812500000000047 1.3871330972035296 0.020957071764568624
v 0.14312499999999978 1.3871330972035296 0.020957071764568624
vt 0.25 0.6875
vt 0 0.6875
vt 0 1
vt 0.25 1
vt 0.0625 0.6875
vt 0 0.6875
vt 0 1
vt 0.0625 1
vt 0.25 0.6875
vt 0 0.6875
vt 0 1
vt 0.25 1
vt 0.0625 0.6875
vt 0 0.6875
vt 0 1
vt 0.0625 1
vt 0 0.75
vt 0 1
vt 0.0625 1
vt 0.0625 0.75
vt 0.0625 0.75
vt 0.0625 1
vt 0 1
vt 0 0.75
vn 8.497279155086137e-17 -0.3826834323650901 -0.9238795325112868
vn 2.051424657947912e-16 -0.9238795325112864 0.38268343236509067
vn -8.497279155086141e-17 0.3826834323650903 0.9238795325112866
vn -2.0514246579479118e-16 0.9238795325112863 -0.38268343236509106
vn 1 2.220446049250313e-16 0
vn -1 -2.220446049250313e-16 0
usemtl active
f 97/289/73 98/290/73 99/291/73 100/292/73
f 101/293/74 97/294/74 100/295/74 102/296/74
f 103/297/75 101/298/75 102/299/75 104/300/75
f 98/301/76 103/302/76 104/303/76 99/304/76
f 104/305/77 102/306/77 100/307/77 99/308/77
f 98/309/78 97/310/78 101/311/78 103/312/78
o cube8
v -0.1681250000000004 1.1498317495558734 -0.12142019868509002
v -0.16812500000000047 1.3808016326836952 -0.025749340593817505
v 0.14312499999999978 1.3808016326836952 -0.025749340593817505
v 0.14312499999999984 1.1498317495558734 -0.12142019868509002
v -0.1681250000000004 1.1259140350330554 -0.06367772790313458
v 0.14312499999999984 1.1259140350330554 -0.06367772790313458
v -0.16812500000000047 1.356883918160877 0.031993130188137875
v 0.14312499999999978 1.356883918160877 0.031993130188137875
vt 0.25 0.6875
vt 0 0.6875
vt 0 1
vt 0.25 1
vt 0.0625 0.6875
vt 0 0.6875
vt 0 1
vt 0.0625 1
vt 0.25 0.6875
vt 0 0.6875
vt 0 1
vt 0.25 1
vt 0.0625 0.6875
vt 0 0.6875
vt 0 1
vt 0.0625 1
vt 0.0625 1
vt 0.0625 0.75
vt 0 0.75
vt 0 1
vt 0 1
vt 0 0.75
vt 0.0625 0.75
vt 0.0625 1
vn -8.497279155086135e-17 0.38268343236509 -0.9238795325112868
vn 2.0514246579479145e-16 -0.9238795325112875 -0.382683432365088
vn 8.497279155086137e-17 -0.3826834323650901 0.9238795325112868
vn -2.0514246579479113e-16 0.9238795325112861 0.3826834323650914
vn 1 2.220446049250313e-16 0
vn -1 -2.220446049250313e-16 0
usemtl active
f 105/313/79 106/314/79 107/315/79 108/316/79
f 109/317/80 105/318/80 108/319/80 110/320/80
f 111/321/81 109/322/81 110/323/81 112/324/81
f 106/325/82 111/326/82 112/327/82 107/328/82
f 112/329/83 110/330/83 108/331/83 107/332/83
f 106/333/84 105/334/84 109/335/84 111/336/84
o cube9
v -0.3089201986850903 1.0931965196406264 0.030625000000009547
v -0.13529746151497202 1.3808016326836947 0.03062500000001169
v -0.13529746151497202 1.3808016326836952 -0.030624999999988554
v -0.3089201986850903 1.0931965196406268 -0.030624999999990698
v -0.20412960698198074 1.063414035033055 0.03062500000000934
v -0.20412960698198074 1.0634140350330554 -0.030624999999990906
v -0.030506869811862472 1.351019148076123 0.030625000000011483
v -0.030506869811862465 1.3510191480761236 -0.030624999999988762
vt 0 0.81375
vt 0.33594999999999997 0.81375
vt 0.33594999999999997 0.875
vt 0 0.875
vt 0.0625 0.6875
vt 0 0.6875
vt 0 1
vt 0.0625 1
vt 0.25 0.6875
vt 0 0.6875
vt 0 1
vt 0.25 1
vt 0.0625 0.6875
vt 0 0.6875
vt 0 1
vt 0.0625 1
vt 0 0.7401773923155719
vt 0.3241157806677535 0.8285626647663323
vt 0.32411578066775326 0.9375
vt 0.0000017086227790397146 0.8491207394630944
vt 0.0625 0.9713381350603942
vt 0.06250000000000011 0.6353904823068366
vt 0.16760007446372482 0.6640491172277813
vt 0.1676054251159702 1
vn -0.8560982042640534 0.5168131815809882 3.7967888903749575e-15
vn -0.27338266767651304 -0.9619053576179277 -7.170303272712112e-15
vn 0.856098204264053 -0.5168131815809884 -3.796788890374959e-15
vn 0.2733826676765149 0.9619053576179272 7.170303272712107e-15
vn 1.1102230246251484e-16 7.382983113757291e-15 -1
vn -1.1102230246251484e-16 -7.382983113757291e-15 1
usemtl active
f 113/337/85 114/338/85 115/339/85 116/340/85
f 117/341/86 113/342/86 116/343/86 118/344/86
f 119/345/87 117/346/87 118/347/87 120/348/87
f 114/349/88 119/350/88 120/351/88 115/352/88
f 120/353/89 118/354/89 116/355/89 115/356/89
f 114/357/90 113/358/90 117/359/90 119/360/90
o cube10
v -0.1687500000000003 1.125 -0.078125
v -0.16875000000000034 1.25 -0.078125
v 0.14374999999999966 1.25 -0.078125
v 0.1437499999999997 1.125 -0.078125
v -0.1687500000000003 1.125 0.078125
v 0.1437499999999997 1.125 0.078125
v -0.16875000000000034 1.25 0.078125
v 0.14374999999999966 1.25 0.078125
vt 0.0625 0.6875
vt 0 0.6875
vt 0 1
vt 0.0625 1
vt 0.15625 0.6875
vt 0 0.6875
vt 0 1
vt 0.15625 1
vt 0.0625 0.6875
vt 0 0.6875
vt 0 1
vt 0.0625 1
vt 0.15625 0.6875
vt 0 0.6875
vt 0 1
vt 0.15625 1
vt 0.15625 1
vt 0.15625 0.9375
vt 0 0.9375
vt 0 1
vt 0 1
vt 0 0.9375
vt 0.15625 0.9375
vt 0.15625 1
vn 0 0 -1
vn 2.220446049250313e-16 -1 0
vn 0 0 1
vn -2.220446049250313e-16 1 0
vn 1 2.220446049250313e-16 0
vn -1 -2.220446049250313e-16 0
usemtl active
f 121/361/91 122/362/91 123/363/91 124/364/91
f 125/365/92 121/366/92 124/367/92 126/368/92
f 127/369/93 125/370/93 126/371/93 128/372/93
f 122/373/94 127/374/94 128/375/94 123/376/94
f 128/377/95 126/378/95 124/379/95 123/380/95
f 122/381/96 121/382/96 125/383/96 127/384/96
o cube11
v -0.16875000000000034 1.25 -0.015625
v -0.16875000000000034 1.3125 -0.015625
v 0.14374999999999966 1.3125 -0.015625
v 0.14374999999999966 1.25 -0.015625
v -0.16875000000000034 1.25 0.015625
v 0.14374999999999966 1.25 0.015625
v -0.16875000000000034 1.3125 0.015625
v 0.14374999999999966 1.3125 0.015625
vt 0.0625 0.6875
vt 0 0.6875
vt 0 1
vt 0.0625 1
vt 0.03125 0.6875
vt 0 0.6875
vt 0 1
vt 0.03125 1
vt 0.0625 0.6875
vt 0 0.6875
vt 0 1
vt 0.0625 1
vt 0.03125 0.6875
vt 0 0.6875
vt 0 1
vt 0.03125 1
vt 0.03125 1
vt 0.03125 0.9375
vt 0 0.9375
vt 0 1
vt 0 1
vt 0 0.9375
vt 0.03125 0.9375
vt 0.03125 1
vn 0 0 -1
vn 2.220446049250313e-16 -1 0
vn 0 0 1
vn -2.220446049250313e-16 1 0
vn 1 2.220446049250313e-16 0
vn -1 -2.220446049250313e-16 0
usemtl active
f 129/385/97 130/386/97 131/387/97 132/388/97
f 133/389/98 129/390/98 132/391/98 134/392/98
f 135/393/99 133/394/99 134/395/99 136/396/99
f 130/397/100 135/398/100 136/399/100 131/400/100
f 136/401/101 134/402/101 132/403/101 131/404/101
f 130/405/102 129/406/102 133/407/102 135/408/102
o cube12
v -0.16875000000000034 1.3125 -0.026249999999999996
v -0.16875000000000034 1.375 -0.026249999999999996
v 0.14374999999999966 1.375 -0.026249999999999996
v 0.14374999999999966 1.3125 -0.026249999999999996
v -0.16875000000000034 1.3125 0.026249999999999996
v 0.14374999999999966 1.3125 0.026249999999999996
v -0.16875000000000034 1.375 0.026249999999999996
v 0.14374999999999966 1.375 0.026249999999999996
vt 0.0625 0.6875
vt 0 0.6875
vt 0 1
vt 0.0625 1
vt 0.05249999999999999 0.6875
vt 0 0.6875
vt 0 1
vt 0.05249999999999999 1
vt 0.0625 0.6875
vt 0 0.6875
vt 0 1
vt 0.0625 1
vt 0.05249999999999999 0.6875
vt 0 0.6875
vt 0 1
vt 0.05249999999999999 1
vt 0.05249999999999999 1
vt 0.05249999999999999 0.9375
vt 0 0.9375
vt 0 1
vt 0 1
vt 0 0.9375
vt 0.05249999999999999 0.9375
vt 0.05249999999999999 1
vn 0 0 -1
vn 2.220446049250313e-16 -1 0
vn 0 0 1
vn -2.220446049250313e-16 1 0
vn 1 2.220446049250313e-16 0
vn -1 -2.220446049250313e-16 0
usemtl active
f 137/409/103 138/410/103 139/411/103 140/412/103
f 141/413/104 137/414/104 140/415/104 142/416/104
f 143/417/105 141/418/105 142/419/105 144/420/105
f 138/421/106 143/422/106 144/423/106 139/424/106
f 144/425/107 142/426/107 140/427/107 139/428/107
f 138/429/108 137/430/108 141/431/108 143/432/108