# Made in Blockbench 4.8.1
mtllib base_outline.mtl

o cube
v 0.0875 0.58125 -0.07466512929402999
v -0.0625 0.58125 -0.07466512929402999
v -0.0625 0.65625 -0.07466512929402999
v 0.0875 0.65625 -0.07466512929402999
v 0.0875 0.58125 0.07533487070597
v 0.0875 0.65625 0.07533487070597
v -0.0625 0.58125 0.07533487070597
v -0.0625 0.65625 0.07533487070597
vt 0 0.9375
vt 0.125 0.9375
vt 0.125 1
vt 0 1
vt 0 0.9375
vt 0.125 0.9375
vt 0.125 1
vt 0 1
vt 0 0.9375
vt 0.125 0.9375
vt 0.125 1
vt 0 1
vt 0 0.9375
vt 0.125 0.9375
vt 0.125 1
vt 0 1
vt 0.125 1
vt 0 1
vt 0 0.875
vt 0.125 0.875
vt 0.125 0.875
vt 0 0.875
vt 0 1
vt 0.125 1
vn 0 0 -1
vn 1 0 0
vn 0 0 1
vn -1 0 0
vn 0 1 0
vn 0 -1 0
usemtl outline
f 1/1/1 2/2/1 3/3/1 4/4/1
f 5/5/2 1/6/2 4/7/2 6/8/2
f 7/9/3 5/10/3 6/11/3 8/12/3
f 2/13/4 7/14/4 8/15/4 3/16/4
f 8/17/5 6/18/5 4/19/5 3/20/5
f 2/21/6 1/22/6 5/23/6 7/24/6
o cube1
v 0.0875 1.03125 -0.07466512929402999
v -0.0625 1.03125 -0.07466512929402999
v -0.0625 1.10625 -0.07466512929402999
v 0.0875 1.10625 -0.07466512929402999
v 0.0875 1.03125 0.07533487070597
v 0.0875 1.10625 0.07533487070597
v -0.0625 1.03125 0.07533487070597
v -0.0625 1.10625 0.07533487070597
vt 0 0.9375
vt 0.125 0.9375
vt 0.125 1
vt 0 1
vt 0 0.871875
vt 0.125 0.871875
vt 0.125 0.934375
vt 0 0.934375
vt 0 0.934375
vt 0.125 0.934375
vt 0.125 0.996875
vt 0 0.996875
vt 0 0.9375
vt 0.125 0.9375
vt 0.125 1
vt 0 1
vt 0.125 1
vt 0 1
vt 0 0.875
vt 0.125 0.875
vt 0.125 0.875
vt 0 0.875
vt 0 1
vt 0.125 1
vn 0 0 -1
vn 1 0 0
vn 0 0 1
vn -1 0 0
vn 0 1 0
vn 0 -1 0
usemtl outline
f 9/25/7 10/26/7 11/27/7 12/28/7
f 13/29/8 9/30/8 12/31/8 14/32/8
f 15/33/9 13/34/9 14/35/9 16/36/9
f 10/37/10 15/38/10 16/39/10 11/40/10
f 16/41/11 14/42/11 12/43/11 11/44/11
f 10/45/12 9/46/12 13/47/12 15/48/12
o cube2
v 0.16249999999999998 0.65625 -0.14966512929403
v -0.1375 0.65625 -0.14966512929403
v -0.1375 1.03125 -0.14966512929403
v 0.16249999999999998 1.03125 -0.14966512929403
v 0.16249999999999998 0.65625 0.15033487070597
v 0.16249999999999998 1.03125 0.15033487070597
v -0.1375 0.65625 0.15033487070597
v -0.1375 1.03125 0.15033487070597
vt 0 0.6875
vt 0.25 0.6875
vt 0.25 1
vt 0 1
vt 0 0.6875
vt 0.25 0.6875
vt 0.25 1
vt 0 1
vt 0 0.6875
vt 0.25 0.6875
vt 0.25 1
vt 0 1
vt 0 0.6875
vt 0.25 0.6875
vt 0.25 1
vt 0 1
vt 0.25 1
vt 0 1
vt 0 0.75
vt 0.25 0.75
vt 0.25 0.75
vt 0 0.75
vt 0 1
vt 0.25 1
vn 0 0 -1
vn 1 0 0
vn 0 0 1
vn -1 0 0
vn 0 1 0
vn 0 -1 0
usemtl outline
f 17/49/13 18/50/13 19/51/13 20/52/13
f 21/53/14 17/54/14 20/55/14 22/56/14
f 23/57/15 21/58/15 22/59/15 24/60/15
f 18/61/16 23/62/16 24/63/16 19/64/16
f 24/65/17 22/66/17 20/67/17 19/68/17
f 18/69/18 17/70/18 21/71/18 23/72/18
o cube3
v 0.2375 0.65625 -0.07466512929402999
v 0.16249999999999998 0.65625 -0.07466512929402999
v 0.16249999999999998 1.03125 -0.07466512929402999
v 0.2375 1.03125 -0.07466512929402999
v 0.2375 0.65625 0.07533487070597
v 0.2375 1.03125 0.07533487070597
v 0.16249999999999998 0.65625 0.07533487070597
v 0.16249999999999998 1.03125 0.07533487070597
vt 0.0625 0.6875
vt 0 0.6875
vt 0 1
vt 0.0625 1
vt 0.125 0.6875
vt 0 0.6875
vt 0 1
vt 0.125 1
vt 0.0625 0.6875
vt 0 0.6875
vt 0 1
vt 0.0625 1
vt 0.125 0.6875
vt 0 0.6875
vt 0 1
vt 0.125 1
vt 0 1
vt 0.0625 1
vt 0.0625 0.875
vt 0 0.875
vt 0 0.875
vt 0.0625 0.875
vt 0.0625 1
vt 0 1
vn 0 0 -1
vn 1 0 0
vn 0 0 1
vn -1 0 0
vn 0 1 0
vn 0 -1 0
usemtl outline
f 25/73/19 26/74/19 27/75/19 28/76/19
f 29/77/20 25/78/20 28/79/20 30/80/20
f 31/81/21 29/82/21 30/83/21 32/84/21
f 26/85/22 31/86/22 32/87/22 27/88/22
f 32/89/23 30/90/23 28/91/23 27/92/23
f 26/93/24 25/94/24 29/95/24 31/96/24
o cube4
v -0.07262966233483699 0.6569999999999999 0.07446196984155015
v -0.3497935220882229 0.6569999999999999 -0.040343059867976795
v -0.3497935220882229 1.0305000000000002 -0.040343059867976795
v -0.07262966233483699 1.0305000000000002 0.07446196984155015
v -0.0998958568908496 0.6569999999999999 0.14028838653297934
v -0.0998958568908496 1.0305000000000002 0.14028838653297934
v -0.37705971664423554 0.6569999999999999 0.025483356823452347
v -0.37705971664423554 1.0305000000000002 0.025483356823452347
vt 0.25 0.6875
vt 0 0.6875
vt 0 1
vt 0.25 1
vt 0.0625 0.6875
vt 0 0.6875
vt 0 1
vt 0.0625 1
vt 0.25 0.6875
vt 0 0.6875
vt 0 1
vt 0.25 1
vt 0.0625 0.6875
vt 0 0.6875
vt 0 1
vt 0.0625 1
vt 0 0.75
vt 0 1
vt 0.0625 1
vt 0.0625 0.75
vt 0.0625 0.75
vt 0.0625 1
vt 0 1
vt 0 0.75
vn 0.38268343236509 0 -0.9238795325112867
vn 0.923879532511287 0 0.38268343236508917
vn -0.38268343236509006 0 0.9238795325112866
vn -0.9238795325112866 0 -0.38268343236509006
vn 0 1 0
vn 0 -1 0
usemtl outline
f 33/97/25 34/98/25 35/99/25 36/100/25
f 37/101/26 33/102/26 36/103/26 38/104/26
f 39/105/27 37/106/27 38/107/27 40/108/27
f 34/109/28 39/110/28 40/111/28 35/112/28
f 40/113/29 38/114/29 36/115/29 35/116/29
f 34/117/30 33/118/30 37/119/30 39/120/30
o cube5
v -0.0922980994670481 0.6569999999999999 -0.14536936771613804
v -0.3694619592204342 0.6569999999999999 -0.030564338006611007
v -0.3694619592204342 1.0305000000000002 -0.030564338006611007
v -0.0922980994670481 1.0305000000000002 -0.14536936771613804
v -0.06359684203966638 0.6569999999999999 -0.07607840277779149
v -0.06359684203966638 1.0305000000000002 -0.07607840277779149
v -0.34076070179305246 0.6569999999999999 0.038726626931735446
v -0.34076070179305246 1.0305000000000002 0.038726626931735446
vt 0.25 0.6875
vt 0 0.6875
vt 0 1
vt 0.25 1
vt 0.0625 0.6875
vt 0 0.6875
vt 0 1
vt 0.0625 1
vt 0.25 0.6875
vt 0 0.6875
vt 0 1
vt 0.25 1
vt 0.0625 0.6875
vt 0 0.6875
vt 0 1
vt 0.0625 1
vt 0.0625 1
vt 0.0625 0.75
vt 0 0.75
vt 0 1
vt 0 1
vt 0 0.75
vt 0.0625 0.75
vt 0.0625 1
vn -0.38268343236509 0 -0.9238795325112867
vn 0.923879532511287 0 -0.38268343236508956
vn 0.3826834323650898 0 0.9238795325112868
vn -0.9238795325112867 0 0.38268343236508995
vn 0 1 0
vn 0 -1 0
usemtl outline
f 41/121/31 42/122/31 43/123/31 44/124/31
f 45/125/32 41/126/32 44/127/32 46/128/32
f 47/129/33 45/130/33 46/131/33 48/132/33
f 42/133/34 47/134/34 48/135/34 43/136/34
f 48/137/35 46/138/35 44/139/35 43/140/35
f 42/141/36 41/142/36 45/143/36 47/144/36
o cube6
v -0.1375 0.65625 -0.09341512929403
v -0.21249999999999997 0.65625 -0.09341512929403
v -0.21249999999999997 1.03125 -0.09341512929403
v -0.1375 1.03125 -0.09341512929403
v -0.1375 0.65625 0.09408487070597
v -0.1375 1.03125 0.09408487070597
v -0.21249999999999997 0.65625 0.09408487070597
v -0.21249999999999997 1.03125 0.09408487070597
vt 0.0625 0.6875
vt 0 0.6875
vt 0 1
vt 0.0625 1
vt 0.15625 0.6875
vt 0 0.6875
vt 0 1
vt 0.15625 1
vt 0.0625 0.6875
vt 0 0.6875
vt 0 1
vt 0.0625 1
vt 0.15625 0.6875
vt 0 0.6875
vt 0 1
vt 0.15625 1
vt 0.15625 1
vt 0.15625 0.9375
vt 0 0.9375
vt 0 1
vt 0 1
vt 0 0.9375
vt 0.15625 0.9375
vt 0.15625 1
vn 0 0 -1
vn 1 0 0
vn 0 0 1
vn -1 0 0
vn 0 1 0
vn 0 -1 0
usemtl outline
f 49/145/37 50/146/37 51/147/37 52/148/37
f 53/149/38 49/150/38 52/151/38 54/152/38
f 55/153/39 53/154/39 54/155/39 56/156/39
f 50/157/40 55/158/40 56/159/40 51/160/40
f 56/161/41 54/162/41 52/163/41 51/164/41
f 50/165/42 49/166/42 53/167/42 55/168/42
o cube7
v -0.21249999999999997 0.65625 -0.01841512929403
v -0.2875 0.65625 -0.01841512929403
v -0.2875 1.03125 -0.01841512929403
v -0.21249999999999997 1.03125 -0.01841512929403
v -0.21249999999999997 0.65625 0.019084870705969998
v -0.21249999999999997 1.03125 0.019084870705969998
v -0.2875 0.65625 0.019084870705969998
v -0.2875 1.03125 0.019084870705969998
vt 0.0625 0.6875
vt 0 0.6875
vt 0 1
vt 0.0625 1
vt 0.03125 0.6875
vt 0 0.6875
vt 0 1
vt 0.03125 1
vt 0.0625 0.6875
vt 0 0.6875
vt 0 1
vt 0.0625 1
vt 0.03125 0.6875
vt 0 0.6875
vt 0 1
vt 0.03125 1
vt 0.03125 1
vt 0.03125 0.9375
vt 0 0.9375
vt 0 1
vt 0 1
vt 0 0.9375
vt 0.03125 0.9375
vt 0.03125 1
vn 0 0 -1
vn 1 0 0
vn 0 0 1
vn -1 0 0
vn 0 1 0
vn 0 -1 0
usemtl outline
f 57/169/43 58/170/43 59/171/43 60/172/43
f 61/173/44 57/174/44 60/175/44 62/176/44
f 63/177/45 61/178/45 62/179/45 64/180/45
f 58/181/46 63/182/46 64/183/46 59/184/46
f 64/185/47 62/186/47 60/187/47 59/188/47
f 58/189/48 57/190/48 61/191/48 63/192/48
o cube8
v -0.2875 0.65625 -0.031165129294029995
v -0.3625 0.65625 -0.031165129294029995
v -0.3625 1.03125 -0.031165129294029995
v -0.2875 1.03125 -0.031165129294029995
v -0.2875 0.65625 0.03183487070596999
v -0.2875 1.03125 0.03183487070596999
v -0.3625 0.65625 0.03183487070596999
v -0.3625 1.03125 0.03183487070596999
vt 0.0625 0.6875
vt 0 0.6875
vt 0 1
vt 0.0625 1
vt 0.05249999999999999 0.6875
vt 0 0.6875
vt 0 1
vt 0.05249999999999999 1
vt 0.0625 0.6875
vt 0 0.6875
vt 0 1
vt 0.0625 1
vt 0.05249999999999999 0.6875
vt 0 0.6875
vt 0 1
vt 0.05249999999999999 1
vt 0.05249999999999999 1
vt 0.05249999999999999 0.9375
vt 0 0.9375
vt 0 1
vt 0 1
vt 0 0.9375
vt 0.05249999999999999 0.9375
vt 0.05249999999999999 1
vn 0 0 -1
vn 1 0 0
vn 0 0 1
vn -1 0 0
vn 0 1 0
vn 0 -1 0
usemtl outline
f 65/193/49 66/194/49 67/195/49 68/196/49
f 69/197/50 65/198/50 68/199/50 70/200/50
f 71/201/51 69/202/51 70/203/51 72/204/51
f 66/205/52 71/206/52 72/207/52 67/208/52
f 72/209/53 70/210/53 68/211/53 67/212/53
f 66/213/54 65/214/54 69/215/54 71/216/54